<?xml version="1.0" encoding="UTF-8"?>
<svg id="Layer_2" data-name="Layer 2" xmlns="http://www.w3.org/2000/svg" xmlns:xlink="http://www.w3.org/1999/xlink" viewBox="0 0 383.29 277.4">
  <defs>
    <style>
      .cls-1 {
        fill: #fff;
      }

      .cls-2 {
        fill: none;
      }

      .cls-3 {
        clip-path: url(#clippath);
      }
    </style>
    <clipPath id="clippath">
      <rect class="cls-2" width="383.29" height="277.4"/>
    </clipPath>
  </defs>
  <g id="Layer_2-2" data-name="Layer 2">
    <g class="cls-3">
      <g id="Group_112" data-name="Group 112">
        <path id="Path_162" data-name="Path 162" class="cls-1" d="M324.79,276.59c-9.02,4.32-16.16,1.96-23.1-5C220.31,189.99,138.85,108.48,57.31,27.06c-7.19-7.19-7.81-16.72-1.57-23.39,6.03-6.44,15.72-6.84,22.58-.89,1.22,1.05,2.33,2.25,3.48,3.39,80.78,80.78,161.58,161.54,242.41,242.27,6.99,6.98,9.74,14.16,5.34,23.38l-4.77,4.77Z"/>
        <path id="Path_165" data-name="Path 165" class="cls-1" d="M53.8,271.86c-4.32-9.02-1.96-16.16,5-23.1C140.39,167.38,221.91,85.92,303.33,4.38c7.19-7.19,16.72-7.81,23.39-1.57,6.44,6.03,6.84,15.72.89,22.58-1.05,1.22-2.25,2.33-3.39,3.48-80.78,80.78-161.54,161.58-242.27,242.41-6.98,6.99-14.16,9.74-23.38,5.34l-4.77-4.77Z"/>
      </g>
    </g>
  </g>
</svg>