<?xml version="1.0" encoding="UTF-8"?>
<svg id="Layer_2" data-name="Layer 2" xmlns="http://www.w3.org/2000/svg" viewBox="0 0 383.28 277.4">
  <defs>
    <style>
      .cls-1 {
        fill: #fff;
        stroke-width: 0px;
      }
    </style>
  </defs>
  <g id="Layer_1-2" data-name="Layer 1">
    <g>
      <path class="cls-1" d="m383.28,142.08c-3.32,9.43-10.04,12.81-19.87,12.8-115.24-.16-230.48-.1-345.71-.11-10.17,0-17.35-6.3-17.65-15.43-.29-8.82,6.28-15.95,15.34-16.6,1.61-.12,3.24-.06,4.86-.06,114.24,0,228.48.06,342.72-.1,9.88-.01,16.9,3.13,20.31,12.76v6.75Z"/>
      <path class="cls-1" d="m383.28,19.83c-1.73,2.67-2.97,5.98-5.33,7.84-2.69,2.11-6.34,3.05-9.67,4.22-1.23.43-2.72.12-4.09.12-115,0-230,0-345.01-.03-2.83,0-5.81-.1-8.47-.94C3.54,28.77-.85,21.38.14,14.01,1.16,6.4,7.4.61,15.07.2c1.62-.09,3.24-.06,4.86-.06C134.18.14,248.44.22,362.69,0c9.89-.02,16.89,2.9,20.59,12.33v7.5Z"/>
      <path class="cls-1" d="m383.28,265.08c-.44.86-.91,1.7-1.31,2.58-2.71,5.81-7.18,9.13-13.61,9.62-1.74.13-3.49.12-5.23.12-114.35,0-228.71,0-343.06-.02-2.73,0-5.55.03-8.18-.59-7.59-1.79-12.72-9.54-11.76-17.31.95-7.73,7.41-13.69,15.17-13.98,1.49-.06,2.99-.02,4.49-.02,114.6,0,229.21.06,343.81-.11,9.91-.02,16.56,3.39,19.69,12.96v6.75Z"/>
    </g>
  </g>
</svg>