<svg id="Group_111" data-name="Group 111" xmlns="http://www.w3.org/2000/svg" xmlns:xlink="http://www.w3.org/1999/xlink" width="77.571" height="93.851" viewBox="0 0 77.571 93.851">
  <defs>
    <clipPath id="clip-path">
      <rect id="Rectangle_293" data-name="Rectangle 293" width="77.571" height="93.851" fill="none"/>
    </clipPath>
    <clipPath id="clip-path-2">
      <path id="Path_122" data-name="Path 122" d="M87.946,24.941c-.835.079-1.657.119-2.444.119A17.215,17.215,0,0,1,79.2,24.006L67.221,36.588a34.006,34.006,0,0,1,4.417,17.52,37.983,37.983,0,0,1-2.1,9.881c-1.606,5.273-3.266,10.725-1.807,17.416a15.559,15.559,0,0,0,7.352,9.988,49.192,49.192,0,0,0,7.4,2.934,82.7,82.7,0,0,1,7.843,2.988,26.321,26.321,0,0,1,5.417,3.581,26.211,26.211,0,0,1,5.412-3.581A82.681,82.681,0,0,1,109,94.327a49.192,49.192,0,0,0,7.4-2.934,15.559,15.559,0,0,0,7.352-9.988c1.459-6.691-.2-12.144-1.807-17.416a37.984,37.984,0,0,1-2.1-9.881,34.006,34.006,0,0,1,4.417-17.52L112.285,24.006a17.212,17.212,0,0,1-6.3,1.054c-.787,0-1.609-.04-2.444-.119a16.352,16.352,0,0,1-7.814-2.829,16.124,16.124,0,0,1-7.777,2.829" transform="translate(-67.174 -22.112)" fill="none"/>
    </clipPath>
  </defs>
  <g id="Group_77" data-name="Group 77">
    <g id="Group_76" data-name="Group 76" clip-path="url(#clip-path)">
      <path id="Path_117" data-name="Path 117" d="M84.34,80.913c5.008-2.327,11.787-3.946,15.429-6.02a18.007,18.007,0,0,0,8.6-11.686c2.559-11.741-3.613-19.979-3.845-27.924a31,31,0,0,1,5.091-17.773L94.913,2.066s-2.63,2.158-9.038,1.551A12.979,12.979,0,0,1,77.806,0,12.7,12.7,0,0,1,69.8,3.617c-6.408.607-9.038-1.551-9.038-1.551l-14.7,15.446a31,31,0,0,1,5.091,17.773c-.231,7.945-6.4,16.183-3.845,27.924a18.007,18.007,0,0,0,8.6,11.686c3.642,2.074,10.421,3.693,15.429,6.02a27.758,27.758,0,0,1,6.509,4.7,27.625,27.625,0,0,1,6.5-4.7" transform="translate(-39.05)" fill="#fff"/>
      <path id="Path_118" data-name="Path 118" d="M77.809.854a13.962,13.962,0,0,0,8.008,3.368c.773.073,1.532.11,2.257.11a13.354,13.354,0,0,0,6.748-1.48l14.012,14.721a29,29,0,0,0-2.44,4.682A31.871,31.871,0,0,0,103.915,35.3a36.57,36.57,0,0,0,2.01,9.362c1.6,5.259,3.416,11.219,1.848,18.414a17.39,17.39,0,0,1-2.613,6.018,17.013,17.013,0,0,1-5.693,5.269,50.2,50.2,0,0,1-7.733,3.086,81.178,81.178,0,0,0-7.652,2.911,26.885,26.885,0,0,0-6.245,4.416,27.011,27.011,0,0,0-6.252-4.416,81.195,81.195,0,0,0-7.652-2.911A50.2,50.2,0,0,1,56.2,74.365,17.013,17.013,0,0,1,50.509,69.1,17.391,17.391,0,0,1,47.9,63.078c-1.568-7.2.247-13.156,1.848-18.414a36.571,36.571,0,0,0,2.01-9.362,31.876,31.876,0,0,0-2.478-13.046,28.985,28.985,0,0,0-2.44-4.682L60.848,2.853A13.353,13.353,0,0,0,67.6,4.333c.725,0,1.484-.037,2.257-.11A13.7,13.7,0,0,0,77.809.854M77.8,0A12.7,12.7,0,0,1,69.8,3.617c-.79.075-1.523.108-2.2.108-4.817,0-6.838-1.659-6.838-1.659l-14.7,15.446a31,31,0,0,1,5.091,17.773c-.231,7.945-6.4,16.183-3.845,27.924a18.007,18.007,0,0,0,8.6,11.686c3.642,2.074,10.421,3.693,15.429,6.02a27.756,27.756,0,0,1,6.509,4.7,27.624,27.624,0,0,1,6.5-4.7c5.008-2.327,11.787-3.946,15.429-6.02a18.007,18.007,0,0,0,8.6-11.686c2.559-11.741-3.613-19.979-3.845-27.924a31,31,0,0,1,5.091-17.773L94.912,2.066S92.89,3.725,88.074,3.725c-.677,0-1.41-.033-2.2-.108A12.98,12.98,0,0,1,77.8,0" transform="translate(-39.049)" fill="#1a1818"/>
      <path id="Path_119" data-name="Path 119" d="M77.809.854a13.961,13.961,0,0,0,8.008,3.369c.773.073,1.532.11,2.257.11a13.355,13.355,0,0,0,6.748-1.48l14.012,14.721a28.988,28.988,0,0,0-2.44,4.682A31.874,31.874,0,0,0,103.915,35.3a36.564,36.564,0,0,0,2.01,9.362c1.6,5.259,3.416,11.219,1.848,18.414a17.39,17.39,0,0,1-2.613,6.018,17.013,17.013,0,0,1-5.693,5.269,50.2,50.2,0,0,1-7.733,3.086,81.178,81.178,0,0,0-7.652,2.911,26.889,26.889,0,0,0-6.245,4.416,27.011,27.011,0,0,0-6.252-4.416,81.195,81.195,0,0,0-7.652-2.911A50.2,50.2,0,0,1,56.2,74.365,17.013,17.013,0,0,1,50.509,69.1,17.391,17.391,0,0,1,47.9,63.078c-1.568-7.2.247-13.156,1.848-18.414a36.565,36.565,0,0,0,2.01-9.362,31.874,31.874,0,0,0-2.478-13.046,29,29,0,0,0-2.44-4.682L60.848,2.853A13.353,13.353,0,0,0,67.6,4.333c.725,0,1.484-.037,2.257-.11A13.7,13.7,0,0,0,77.809.854M77.8,0A12.7,12.7,0,0,1,69.8,3.617c-.79.075-1.523.108-2.2.108-4.817,0-6.838-1.659-6.838-1.659l-14.7,15.446a31,31,0,0,1,5.091,17.773c-.231,7.945-6.4,16.183-3.845,27.924a18.007,18.007,0,0,0,8.6,11.686c3.642,2.074,10.421,3.693,15.429,6.02a27.756,27.756,0,0,1,6.509,4.7,27.623,27.623,0,0,1,6.5-4.7c5.008-2.327,11.787-3.946,15.429-6.02a18.007,18.007,0,0,0,8.6-11.686c2.559-11.741-3.613-19.979-3.845-27.924a31,31,0,0,1,5.091-17.773L94.912,2.066S92.89,3.725,88.074,3.725c-.677,0-1.41-.033-2.2-.108A12.98,12.98,0,0,1,77.8,0" transform="translate(-39.049)" fill="#1a1818"/>
      <path id="Path_120" data-name="Path 120" d="M95.743,100.9a26.321,26.321,0,0,0-5.417-3.581,82.64,82.64,0,0,0-7.843-2.988,49.192,49.192,0,0,1-7.4-2.934,15.559,15.559,0,0,1-7.352-9.988c-1.459-6.691.2-12.144,1.807-17.416a38,38,0,0,0,2.1-9.881,34,34,0,0,0-4.417-17.52L79.2,24.006A17.214,17.214,0,0,0,85.5,25.06c.787,0,1.609-.04,2.444-.119a16.124,16.124,0,0,0,7.776-2.829,16.355,16.355,0,0,0,7.814,2.829c.835.079,1.657.119,2.444.119a17.214,17.214,0,0,0,6.3-1.054l11.976,12.582a34.005,34.005,0,0,0-4.417,17.52,37.99,37.99,0,0,0,2.1,9.881c1.606,5.273,3.266,10.725,1.807,17.416a15.559,15.559,0,0,1-7.352,9.988,49.192,49.192,0,0,1-7.4,2.934,82.642,82.642,0,0,0-7.843,2.988,26.21,26.21,0,0,0-5.412,3.581" transform="translate(-56.955 -18.748)" fill="#00652f"/>
    </g>
  </g>
  <g id="Group_79" data-name="Group 79" transform="translate(10.219 3.364)">
    <g id="Group_78" data-name="Group 78" clip-path="url(#clip-path-2)">
      <path id="Path_121" data-name="Path 121" d="M117.584,233.483c-.441-3.745-2.5-12.117-3.452-13.66s-2.644-8.96-2.644-8.96h-3.773V208.3c0-.321.042-.278-.279-.278h-9.81c-.321,0-.279-.042-.279.278v2.561H92.794V208.3c0-.321.042-.278-.279-.278h-9.81c-.321,0-.279-.042-.279.278v2.561H77.871V208.3c0-.321.042-.278-.279-.278h-9.81c-.321,0-.279-.042-.279.278v2.561H63.46a57.731,57.731,0,0,1-1.836,5.581c-.661,1.4-1.689,6.169-3.3,10.5s-.22,12.264.588,15.569,8.739,8.739,11.089,9.62,10.134,4.333,11.97,5.141,6.169,3.084,6.169,3.084a35.261,35.261,0,0,1,6.9-4.039c2.864-1.028,8.3-3.084,12.117-4.7s7.271-6.169,8.886-7.784,1.983-6.61,1.542-10.355" transform="translate(-59.034 -179.741)" fill="#1a1818"/>
    </g>
  </g>
  <g id="Group_81" data-name="Group 81">
    <g id="Group_80" data-name="Group 80" clip-path="url(#clip-path)">
      <path id="Path_123" data-name="Path 123" d="M95.725,22.848a17.029,17.029,0,0,0,7.755,2.7c.854.081,1.694.122,2.5.122a18.315,18.315,0,0,0,6.141-.952l11.389,11.965a34.565,34.565,0,0,0-4.275,17.444,38.44,38.44,0,0,0,2.121,10.041c1.583,5.2,3.22,10.573,1.8,17.11a14.937,14.937,0,0,1-7.059,9.589,48.942,48.942,0,0,1-7.3,2.888,83.018,83.018,0,0,0-7.9,3.01,26.1,26.1,0,0,0-5.156,3.345,26.215,26.215,0,0,0-5.16-3.345,83.08,83.08,0,0,0-7.9-3.012,48.914,48.914,0,0,1-7.292-2.887,14.936,14.936,0,0,1-7.058-9.589c-1.425-6.536.212-11.911,1.8-17.111a38.428,38.428,0,0,0,2.121-10.039,34.562,34.562,0,0,0-4.275-17.444L79.361,24.717a18.316,18.316,0,0,0,6.141.952c.807,0,1.648-.041,2.5-.122a16.811,16.811,0,0,0,7.721-2.7m0-.736a16.124,16.124,0,0,1-7.776,2.829c-.835.079-1.657.119-2.444.119a17.214,17.214,0,0,1-6.3-1.054L67.222,36.588a34.005,34.005,0,0,1,4.417,17.52,37.991,37.991,0,0,1-2.1,9.881c-1.605,5.273-3.266,10.725-1.807,17.416a15.559,15.559,0,0,0,7.352,9.988,49.207,49.207,0,0,0,7.4,2.934,82.592,82.592,0,0,1,7.843,2.988,26.311,26.311,0,0,1,5.417,3.581,26.2,26.2,0,0,1,5.412-3.581A82.58,82.58,0,0,1,109,94.327a49.221,49.221,0,0,0,7.4-2.934,15.559,15.559,0,0,0,7.352-9.988c1.459-6.691-.2-12.144-1.807-17.416a37.992,37.992,0,0,1-2.1-9.881,34.007,34.007,0,0,1,4.417-17.52L112.285,24.006a17.211,17.211,0,0,1-6.3,1.054h0c-.786,0-1.608-.04-2.442-.119a16.355,16.355,0,0,1-7.814-2.829" transform="translate(-56.956 -18.748)" fill="#1a1818"/>
      <rect id="Rectangle_294" data-name="Rectangle 294" width="4.763" height="37.44" transform="translate(35.694 46.408) rotate(-49.561)" fill="#fff"/>
      <rect id="Rectangle_295" data-name="Rectangle 295" width="37.44" height="4.763" transform="translate(10.292 67.066) rotate(-40.439)" fill="#fff"/>
      <path id="Path_124" data-name="Path 124" d="M205.077,68.072,197.322,80.83l7.756,6.11Z" transform="translate(-167.305 -57.717)" fill="#fff"/>
      <path id="Path_125" data-name="Path 125" d="M256.213,67.24V86.2l8.579-5.287Z" transform="translate(-217.238 -57.011)" fill="#fff"/>
      <path id="Path_126" data-name="Path 126" d="M265.936,150.55v-3.141l3.748-2.3L271,147.286Zm.587-2.812v1.734L270.2,147.1l-.713-1.18Z" transform="translate(-225.481 -123.036)" fill="#1a1818"/>
      <path id="Path_127" data-name="Path 127" d="M243.522,291.231a2.053,2.053,0,1,0,2.053,2.053,2.053,2.053,0,0,0-2.053-2.053m-.09.269v1.652H241.74a1.789,1.789,0,0,1,1.692-1.652m-1.692,1.916h1.692v1.652a1.788,1.788,0,0,1-1.692-1.652m1.956,1.648V291.5a1.788,1.788,0,0,1,0,3.56" transform="translate(-204.736 -246.928)" fill="#1a1818"/>
      <path id="Path_128" data-name="Path 128" d="M111.611,400.616a2.053,2.053,0,1,0,2.053,2.053,2.053,2.053,0,0,0-2.053-2.053m-.09.269v1.652h-1.692a1.789,1.789,0,0,1,1.692-1.652m-1.692,1.916h1.692v1.652a1.788,1.788,0,0,1-1.692-1.652m1.956,1.648v-3.56a1.788,1.788,0,0,1,0,3.56" transform="translate(-92.892 -339.674)" fill="#1a1818"/>
      <path id="Path_129" data-name="Path 129" d="M375.433,400.616a2.053,2.053,0,1,0,2.053,2.053,2.053,2.053,0,0,0-2.053-2.053m-.09.269v1.652h-1.692a1.789,1.789,0,0,1,1.692-1.652m-1.692,1.916h1.692v1.652a1.788,1.788,0,0,1-1.692-1.652m1.956,1.648v-3.56a1.788,1.788,0,0,1,0,3.56" transform="translate(-316.581 -339.674)" fill="#1a1818"/>
      <path id="Path_130" data-name="Path 130" d="M108.52,248.084l1.685,4.847,5.13.1-4.089,3.1,1.486,4.911-4.212-2.931-4.212,2.931,1.486-4.911-4.089-3.1,5.13-.1Z" transform="translate(-86.234 -210.345)" fill="#fff"/>
      <path id="Path_131" data-name="Path 131" d="M325.442,248.084l1.685,4.847,5.13.1-4.089,3.1,1.486,4.911-4.212-2.931-4.212,2.931,1.486-4.911-4.089-3.1,5.13-.1Z" transform="translate(-270.158 -210.345)" fill="#fff"/>
      <path id="Path_132" data-name="Path 132" d="M187.922,396.712v2.028H185.6v4.2h4.461a1.945,1.945,0,0,0,1.907-2.025,1.752,1.752,0,0,0-1.321-1.878v-1.819a3.625,3.625,0,0,1,3.14,3.7,3.562,3.562,0,0,1-3.257,3.844h-4.96v4.217a2.056,2.056,0,0,0,.411,1.359,2.773,2.773,0,0,0,.786.5h-4.688s.972-.462,1.207-1.042a3.815,3.815,0,0,0,.157-1.443c0-.44.014-9.4.014-9.69a2.771,2.771,0,0,0-.294-1.178,2.868,2.868,0,0,0-.792-.767Z" transform="translate(-154.384 -336.364)" fill="#fff"/>
      <path id="Path_133" data-name="Path 133" d="M215.406,452.833v5.254a1.326,1.326,0,0,1-.563,1.007c-.377.249-.792.489-.792.489h4.408a2.589,2.589,0,0,1-.9-.716,1.706,1.706,0,0,1-.239-.891v-5.146Z" transform="translate(-181.489 -383.946)" fill="#fff"/>
      <path id="Path_134" data-name="Path 134" d="M215.406,394.6v-5.934a1.326,1.326,0,0,0-.563-1.007c-.377-.249-.792-.489-.792-.489h4.408a2.59,2.59,0,0,0-.9.716,1.706,1.706,0,0,0-.239.891v5.825Z" transform="translate(-181.489 -328.277)" fill="#fff"/>
      <path id="Path_135" data-name="Path 135" d="M282.51,392.524v-3.853a1.326,1.326,0,0,0-.563-1.007c-.377-.249-.792-.489-.792-.489h4.409a2.59,2.59,0,0,0-.9.716,1.706,1.706,0,0,0-.239.891v5.164Z" transform="translate(-238.385 -328.277)" fill="#fff"/>
      <path id="Path_136" data-name="Path 136" d="M252.43,445.971c-.377.249-.792.489-.792.489h4.408a2.588,2.588,0,0,1-.9-.716,1.706,1.706,0,0,1-.239-.891V439.73s-2.674-1.7-3-1.949a5.581,5.581,0,0,1-.463-.428h-3.118a2.5,2.5,0,0,1-.56.868,8.537,8.537,0,0,1-1.426,1.118h6.65v5.625a1.327,1.327,0,0,1-.563,1.007" transform="translate(-208.869 -370.822)" fill="#fff"/>
      <path id="Path_137" data-name="Path 137" d="M273.217,399.557l-.008-1.668a2.918,2.918,0,0,0-2.6,2.944c0,2.365,2.253,3.307,3.579,4.25s3.126,1.371,3.126,3.321a1.846,1.846,0,0,1-1.56,1.836v1.2s3.563.208,3.563-3.243a4.627,4.627,0,0,0-2.684-4.01c-.543-.367-2.78-1.9-3.451-2.428s-.7-.9-.7-1.206a.931.931,0,0,1,.734-1" transform="translate(-229.441 -337.361)" fill="#fff"/>
      <path id="Path_138" data-name="Path 138" d="M263.507,462.679a1.843,1.843,0,0,1-1.885-.8,4.519,4.519,0,0,1-.636-2.118l-1.824,4.137h4.357Z" transform="translate(-219.738 -389.826)" fill="#fff"/>
      <path id="Path_139" data-name="Path 139" d="M304.343,397.776a3.076,3.076,0,0,1,1.249.492c.515.341.678.38.763.276a3.939,3.939,0,0,0,.344-.626v3.473a4.831,4.831,0,0,0-1.029-1.476,2.3,2.3,0,0,0-1.336-.54Z" transform="translate(-258.038 -337.266)" fill="#fff"/>
      <path id="Path_140" data-name="Path 140" d="M75.441,436.833l.006-.007s-.025-.02-.059-.043a4.652,4.652,0,0,0-1.663-1.043,35.474,35.474,0,0,0-6.992-.311c-.953.06-1.357,1.75-1.34,2.93.018,1.2.418,1.932,1.071,1.954s2.263.073,2.979.1c-.332,1.2-2.1,5.644-10.682,9.855a47.731,47.731,0,0,1-19.147,4.856v-.012l-.3.014s-.188.008-.526.009-.525-.009-.527-.009l-.3-.009v.007a47.731,47.731,0,0,1-19.148-4.856c-8.581-4.212-10.351-8.658-10.682-9.855.716-.023,2.339-.074,2.979-.1s1.054-.753,1.071-1.954c.017-1.181-.387-2.87-1.34-2.93a35.47,35.47,0,0,0-6.992.311A4.664,4.664,0,0,0,2.168,436.8l-.04.03,0,0a7.288,7.288,0,0,0-2.086,6.186c.39,3.961,3.848,7.911,10.279,11.743A57.524,57.524,0,0,0,38.782,463h.251a57.807,57.807,0,0,0,28.212-8.244c6.431-3.831,9.89-7.782,10.279-11.743a7.289,7.289,0,0,0-2.083-6.183m-8.958,2.9c-.291-.01-.5-.58-.514-1.385-.019-1.27.422-2.322.8-2.346a35.5,35.5,0,0,1,6.784.286,2.723,2.723,0,0,1,.4.162,2.581,2.581,0,0,0-.546.12,2.463,2.463,0,0,0-1.453,1.483,1.8,1.8,0,0,0,.061,1.54,2.123,2.123,0,0,0,.246.331l-5.773-.192m6.022-.436a1.036,1.036,0,0,1-.108-.679l2.343.452a1.378,1.378,0,0,1-.809.843,1.258,1.258,0,0,1-1.426-.616M4.018,436.291a35.479,35.479,0,0,1,6.784-.286c.377.024.818,1.076.8,2.346-.012.806-.223,1.375-.514,1.385-.832.028-5.763.186-5.763.186a2.122,2.122,0,0,0,.241-.325,1.8,1.8,0,0,0,.061-1.54,2.464,2.464,0,0,0-1.453-1.484,2.574,2.574,0,0,0-.55-.121,2.687,2.687,0,0,1,.4-.162M5.07,439.3a1.257,1.257,0,0,1-1.426.616,1.377,1.377,0,0,1-.809-.843l2.343-.452a1.036,1.036,0,0,1-.108.679M76.95,442.96c-.371,3.768-3.735,7.571-10,11.3a56.979,56.979,0,0,1-28.168,8.162,56.948,56.948,0,0,1-28.162-8.162c-6.265-3.732-9.63-7.535-10-11.3a6.737,6.737,0,0,1,1.87-5.686v0a1.625,1.625,0,0,1,1.5-.154A1.834,1.834,0,0,1,5,438.067l-2.9.56.07.293a2.19,2.19,0,0,0,1.321,1.554,1.916,1.916,0,0,0,.5.068v0l3.539-.124c.263,1.151,1.869,5.865,11.024,10.36A48.171,48.171,0,0,0,38.24,455.7h.169c.091,0,.217,0,.376,0l.25,0v0l.294-.006a48.172,48.172,0,0,0,19.685-4.921c9.142-4.487,10.757-9.195,11.023-10.354l3.38.118v-.013c.053.005.107.009.163.009a1.919,1.919,0,0,0,.5-.068A2.189,2.189,0,0,0,75.4,438.92l.07-.293-2.9-.56a1.834,1.834,0,0,1,1.014-.946,1.635,1.635,0,0,1,1.488.148,6.736,6.736,0,0,1,1.875,5.691" transform="translate(0 -369.152)" fill="#1a1818"/>
      <path id="Path_141" data-name="Path 141" d="M24.211,439.5a35.457,35.457,0,0,1,6.784-.286c.377.024.818,1.075.8,2.346-.012.806-.223,1.375-.514,1.385-.832.028-5.763.186-5.763.186a2.126,2.126,0,0,0,.241-.325,1.8,1.8,0,0,0,.061-1.54,2.464,2.464,0,0,0-1.453-1.484,2.591,2.591,0,0,0-.55-.121,2.717,2.717,0,0,1,.4-.162" transform="translate(-20.193 -372.356)" fill="#00652f"/>
      <path id="Path_142" data-name="Path 142" d="M80.167,452.049c-.371,3.768-3.735,7.571-10,11.3A56.978,56.978,0,0,1,42,471.514a56.945,56.945,0,0,1-28.162-8.162c-6.265-3.732-9.63-7.535-10-11.3a6.737,6.737,0,0,1,1.87-5.686v0a1.626,1.626,0,0,1,1.5-.154,1.834,1.834,0,0,1,1.014.947l-2.9.559.07.293a2.19,2.19,0,0,0,1.321,1.554,1.924,1.924,0,0,0,.5.068v0l3.539-.124c.263,1.151,1.869,5.865,11.024,10.36a48.172,48.172,0,0,0,19.685,4.921h.169c.091,0,.217,0,.376,0l.25,0v0l.294-.005a48.173,48.173,0,0,0,19.685-4.921c9.142-4.487,10.757-9.194,11.023-10.354l3.38.118v-.013c.053.005.107.009.163.009a1.924,1.924,0,0,0,.5-.068,2.189,2.189,0,0,0,1.321-1.555l.07-.293-2.9-.559a1.834,1.834,0,0,1,1.014-.947,1.634,1.634,0,0,1,1.488.148,6.735,6.735,0,0,1,1.875,5.691" transform="translate(-3.216 -378.241)" fill="#00652f"/>
      <path id="Path_143" data-name="Path 143" d="M434.181,442.941c-.291-.01-.5-.58-.514-1.385-.019-1.27.422-2.322.8-2.346a35.469,35.469,0,0,1,6.784.286,2.682,2.682,0,0,1,.4.162,2.582,2.582,0,0,0-.546.12,2.464,2.464,0,0,0-1.453,1.484,1.8,1.8,0,0,0,.061,1.54,2.124,2.124,0,0,0,.246.331l-5.773-.192" transform="translate(-367.697 -372.357)" fill="#00652f"/>
      <path id="Path_144" data-name="Path 144" d="M20.875,457.349a1.257,1.257,0,0,1-1.426.616,1.377,1.377,0,0,1-.809-.843l2.342-.452a1.036,1.036,0,0,1-.107.679" transform="translate(-15.804 -387.201)" fill="#fff"/>
      <path id="Path_145" data-name="Path 145" d="M475.955,457.349a1.036,1.036,0,0,1-.108-.679l2.342.452a1.377,1.377,0,0,1-.808.843,1.258,1.258,0,0,1-1.426-.616" transform="translate(-403.449 -387.201)" fill="#fff"/>
      <path id="Path_146" data-name="Path 146" d="M60.179,525.147l.808-3.354-.022-.013q-.465.894-.637,1.184l-1,1.683-.686-.405,2.141-3.618,1.044.618-.781,3.274.015.009,2.545-2.23,1.044.618-2.141,3.618-.715-.423,1.013-1.713q.072-.121.169-.277t.531-.822l-.022-.013-2.61,2.282Z" transform="translate(-49.726 -441.424)" fill="#fff"/>
      <path id="Path_147" data-name="Path 147" d="M91.268,545.414l.159-1.034-1.382-.664-.708.77-.866-.416,3.165-3.163.983.472-.485,4.45Zm.29-1.8q.208-1.409.237-1.593t.053-.287q-.245.291-1.278,1.405Z" transform="translate(-75.013 -458.624)" fill="#fff"/>
      <path id="Path_148" data-name="Path 148" d="M117.215,553.578l-.945-.378-.317-1.84-1.5,1.114-.887-.354,2.1-1.5-.456-2.375.913.365.279,1.741,1.387-1.075.892.357-2,1.446Z" transform="translate(-96.292 -464.848)" fill="#fff"/>
      <rect id="Rectangle_296" data-name="Rectangle 296" width="4.204" height="0.892" transform="translate(21.554 88.924) rotate(-71.077)" fill="#fff"/>
      <path id="Path_149" data-name="Path 149" d="M156.547,567.043l-.117-3.448-.025-.007q-.209.986-.3,1.311l-.51,1.888-.769-.208,1.1-4.059,1.172.316.122,3.363.017,0,1.857-2.829,1.172.316-1.1,4.059-.8-.217.519-1.921q.037-.136.089-.313t.292-.934l-.025-.007-1.9,2.9Z" transform="translate(-131.275 -476.948)" fill="#fff"/>
      <path id="Path_150" data-name="Path 150" d="M193.965,575.828l-2.383-.432.75-4.137,2.382.432-.13.719-1.505-.273-.165.908,1.4.254-.13.719-1.4-.254-.193,1.067,1.505.273Z" transform="translate(-162.439 -484.359)" fill="#fff"/>
      <path id="Path_151" data-name="Path 151" d="M228.451,578.333a2.069,2.069,0,0,1-.693,1.548,2.409,2.409,0,0,1-1.739.44l-1.188-.078.274-4.2,1.317.086a2.222,2.222,0,0,1,1.56.647,2,2,0,0,1,.469,1.552m-.925-.037q.089-1.352-1.105-1.43l-.473-.031-.179,2.732.382.025q1.286.084,1.376-1.3" transform="translate(-190.628 -488.419)" fill="#fff"/>
      <path id="Path_152" data-name="Path 152" d="M257.424,578.723a2.281,2.281,0,0,1-.448,1.625,2.243,2.243,0,0,1-2.965.127,2.291,2.291,0,0,1-.586-1.587,2.259,2.259,0,0,1,.45-1.624,1.942,1.942,0,0,1,1.463-.617,1.914,1.914,0,0,1,1.5.494,2.285,2.285,0,0,1,.582,1.581m-3.065.132a1.754,1.754,0,0,0,.313,1.049.936.936,0,0,0,.814.322q1.066-.046,1.005-1.462t-1.121-1.374a.942.942,0,0,0-.786.392,1.748,1.748,0,0,0-.225,1.073" transform="translate(-214.87 -488.925)" fill="#fff"/>
      <path id="Path_153" data-name="Path 153" d="M298.207,573.739a2.283,2.283,0,0,1-.224,1.671,2.243,2.243,0,0,1-2.92.528,2.291,2.291,0,0,1-.8-1.493,2.26,2.26,0,0,1,.226-1.67,1.941,1.941,0,0,1,1.366-.809,1.913,1.913,0,0,1,1.558.286,2.287,2.287,0,0,1,.79,1.488m-3.02.545a1.756,1.756,0,0,0,.452,1,.936.936,0,0,0,.85.209q1.05-.189.8-1.585t-1.3-1.209a.942.942,0,0,0-.726.495,1.748,1.748,0,0,0-.077,1.094" transform="translate(-249.453 -484.917)" fill="#fff"/>
      <path id="Path_154" data-name="Path 154" d="M325.9,567.186a1.285,1.285,0,0,1-.146,1.112,1.813,1.813,0,0,1-1.075.655l-.37.1.381,1.446-.862.227-1.071-4.066,1.3-.342a1.786,1.786,0,0,1,1.209.022,1.2,1.2,0,0,1,.635.848m-1.777,1.158.284-.075a.978.978,0,0,0,.554-.314.569.569,0,0,0,.077-.509.583.583,0,0,0-.283-.4.8.8,0,0,0-.557-.008l-.392.1Z" transform="translate(-273.657 -480.089)" fill="#fff"/>
      <path id="Path_155" data-name="Path 155" d="M349.2,561.831l-2.3.758L345.58,558.6l2.3-.758.228.694-1.453.479.289.877,1.352-.446.229.694-1.352.445.339,1.03,1.453-.479Z" transform="translate(-293.01 -472.978)" fill="#fff"/>
      <path id="Path_156" data-name="Path 156" d="M367.293,554.45l.595,1.5-.829.329-1.55-3.908,1.139-.452a2.1,2.1,0,0,1,1.294-.178,1.244,1.244,0,0,1,.785,1.418,1.351,1.351,0,0,1-.37.634q1.4.968,1.825,1.247l-.92.365-1.528-1.129Zm-.267-.674.267-.106a1.1,1.1,0,0,0,.528-.361.5.5,0,0,0,.024-.486.461.461,0,0,0-.348-.32,1.25,1.25,0,0,0-.639.117l-.251.1Z" transform="translate(-309.907 -467.774)" fill="#fff"/>
      <path id="Path_157" data-name="Path 157" d="M397.427,544.508l-.7-.773-1.385.657.154,1.035-.868.412-.47-4.45.985-.467,3.156,3.175Zm-1.217-1.358q-.965-1.047-1.09-1.186t-.19-.222q.072.373.289,1.878Z" transform="translate(-334.195 -458.635)" fill="#fff"/>
      <path id="Path_158" data-name="Path 158" d="M415.474,525.775l-2.543-2.332-.022.013q.557.84.727,1.131l.99,1.686-.687.4-2.128-3.626,1.047-.614,2.486,2.269.015-.009-.717-3.307,1.046-.614,2.128,3.626-.717.421-1.007-1.716q-.071-.122-.161-.282t-.461-.863l-.022.013.732,3.388Z" transform="translate(-349.166 -441.554)" fill="#fff"/>
    </g>
  </g>
</svg>
